# xmcd
#
# Track frame offsets:
#	183
#	11658
#	23808
#	36783
#	50883
#	66183
#	78783
#	92508
#	106308
#	119058
#	131583
#	143883
#	156633
#	168558
#	181233
#	191658
#
# Disc length: 2763
#
# Revision: 3
# Processed by: cddbd v1.5.1PL0 Copyright (c) Steve Scherf et al.
# Submitted via: audiograbber 1.80
# Normalized: r1:DSETVAR1,TDELIM( - ),TSWAP
#
DISCID=e00ac910
DTITLE=Various Artist - Classic Blues
DYEAR=1900
DGENRE=
TTITLE0=Robert Johnson - Walking Blues
TTITLE1=Bill Big Broonzy - Mississipi River Blues
TTITLE2=Jim and Bob (The Genial Hawaians) - St Luis Blues
TTITLE3=Oscar Woods - Evil Hearted Woman Blues
TTITLE4=Billie Willie Johnson - Motherless Children
TTITLE5=Black Ace - Black Ace
TTITLE6=MississipiJohn Hart - Ain't No Tellin
TTITLE7=Leroy Carr - Stormy Night Blues
TTITLE8=Memphis Minnie - Nothing' In Ramblin
TTITLE9=Josh White - I Belive I'll Make a Change
TTITLE10=Tampa Red - You Can't Get That Staff No More
TTITLE11=Bukka White - Fixing To Die Blues
TTITLE12=Leadbelly - C. C. Rider
TTITLE13=Bill Big Broonzy - Long Tall Mama
TTITLE14=Robert Johnson - Stop Breakin' Down Blues
TTITLE15=Bessie Smith - Baby Won't You Please Come Home
EXTD=
EXTT0=
EXTT1=
EXTT2=
EXTT3=
EXTT4=
EXTT5=
EXTT6=
EXTT7=
EXTT8=
EXTT9=
EXTT10=
EXTT11=
EXTT12=
EXTT13=
EXTT14=
EXTT15=
PLAYORDER=
